<mxfile host="app.diagrams.net" agent="Mozilla/5.0 (Windows NT 10.0; Win64; x64) AppleWebKit/537.36 (KHTML, like Gecko) Chrome/131.0.0.0 Safari/537.36" version="25.0.3">
  <diagram name="第 1 页" id="Ulf1pdnDMqi7SPAnJGAT">
    <mxGraphModel dx="1636" dy="1564" grid="0" gridSize="10" guides="1" tooltips="1" connect="1" arrows="1" fold="1" page="0" pageScale="1" pageWidth="827" pageHeight="1169" math="0" shadow="0">
      <root>
        <mxCell id="0" />
        <mxCell id="1" parent="0" />
        <mxCell id="sgSCA6xuzJVySZ0pajvX-1" value="" style="shape=cube;whiteSpace=wrap;html=1;boundedLbl=1;backgroundOutline=1;darkOpacity=0.05;darkOpacity2=0.1;size=48;rotation=0;flipH=1;" vertex="1" parent="1">
          <mxGeometry x="-528" y="-571" width="64" height="170" as="geometry" />
        </mxCell>
        <mxCell id="sgSCA6xuzJVySZ0pajvX-2" value="" style="shape=cube;whiteSpace=wrap;html=1;boundedLbl=1;backgroundOutline=1;darkOpacity=0.05;darkOpacity2=0.1;size=48;rotation=0;flipH=1;" vertex="1" parent="1">
          <mxGeometry x="-502" y="-548.5" width="61" height="125" as="geometry" />
        </mxCell>
        <mxCell id="sgSCA6xuzJVySZ0pajvX-3" value="" style="shape=cube;whiteSpace=wrap;html=1;boundedLbl=1;backgroundOutline=1;darkOpacity=0.05;darkOpacity2=0.1;size=48;rotation=0;flipH=1;" vertex="1" parent="1">
          <mxGeometry x="-478" y="-545" width="60" height="106" as="geometry" />
        </mxCell>
        <mxCell id="sgSCA6xuzJVySZ0pajvX-5" value="&lt;font style=&quot;font-size: 43px;&quot;&gt;&lt;b style=&quot;&quot;&gt;T&lt;sub&gt;1&lt;/sub&gt;&lt;/b&gt;&lt;/font&gt;" style="whiteSpace=wrap;html=1;aspect=fixed;fillColor=#FFD966;strokeColor=#000000;strokeWidth=4;" vertex="1" parent="1">
          <mxGeometry x="-21" y="-506" width="80" height="80" as="geometry" />
        </mxCell>
        <mxCell id="sgSCA6xuzJVySZ0pajvX-6" value="&lt;font style=&quot;&quot;&gt;&lt;b style=&quot;&quot;&gt;&lt;span style=&quot;font-size: 43px;&quot;&gt;T&lt;/span&gt;&lt;span style=&quot;font-size: 35.8333px;&quot;&gt;s&lt;/span&gt;&lt;/b&gt;&lt;/font&gt;" style="whiteSpace=wrap;html=1;aspect=fixed;fillColor=#FFD966;strokeColor=#000000;strokeWidth=4;" vertex="1" parent="1">
          <mxGeometry x="152" y="-506" width="80" height="80" as="geometry" />
        </mxCell>
        <mxCell id="sgSCA6xuzJVySZ0pajvX-7" value="&lt;font style=&quot;&quot;&gt;&lt;b style=&quot;&quot;&gt;&lt;span style=&quot;font-size: 43px;&quot;&gt;T&lt;/span&gt;&lt;span style=&quot;font-size: 35.8333px;&quot;&gt;n&lt;/span&gt;&lt;/b&gt;&lt;/font&gt;" style="whiteSpace=wrap;html=1;aspect=fixed;fillColor=#FFD966;strokeColor=#000000;strokeWidth=4;" vertex="1" parent="1">
          <mxGeometry x="314" y="-509" width="80" height="80" as="geometry" />
        </mxCell>
        <mxCell id="sgSCA6xuzJVySZ0pajvX-8" value="&lt;font style=&quot;font-size: 36px;&quot;&gt;&lt;b style=&quot;&quot;&gt;...&lt;/b&gt;&lt;/font&gt;" style="text;html=1;align=center;verticalAlign=middle;resizable=0;points=[];autosize=1;strokeColor=none;fillColor=none;fontSize=16;" vertex="1" parent="1">
          <mxGeometry x="79" y="-502" width="48" height="55" as="geometry" />
        </mxCell>
        <mxCell id="sgSCA6xuzJVySZ0pajvX-9" value="&lt;font style=&quot;font-size: 36px;&quot;&gt;&lt;b style=&quot;&quot;&gt;...&lt;/b&gt;&lt;/font&gt;" style="text;html=1;align=center;verticalAlign=middle;resizable=0;points=[];autosize=1;strokeColor=none;fillColor=none;fontSize=16;" vertex="1" parent="1">
          <mxGeometry x="249" y="-499" width="48" height="55" as="geometry" />
        </mxCell>
        <mxCell id="sgSCA6xuzJVySZ0pajvX-19" style="edgeStyle=none;curved=1;rounded=0;orthogonalLoop=1;jettySize=auto;html=1;exitX=0.5;exitY=0;exitDx=0;exitDy=0;entryX=0.5;entryY=1;entryDx=0;entryDy=0;fontSize=12;startSize=8;endSize=8;strokeWidth=3;" edge="1" parent="1" source="sgSCA6xuzJVySZ0pajvX-10" target="sgSCA6xuzJVySZ0pajvX-18">
          <mxGeometry relative="1" as="geometry" />
        </mxCell>
        <mxCell id="sgSCA6xuzJVySZ0pajvX-10" value="&lt;span style=&quot;font-size: 43px;&quot;&gt;&lt;b&gt;T&lt;sub&gt;S1&lt;/sub&gt;&lt;/b&gt;&lt;/span&gt;" style="whiteSpace=wrap;html=1;aspect=fixed;fillColor=none;strokeColor=#000000;strokeWidth=4;" vertex="1" parent="1">
          <mxGeometry x="-263" y="-9" width="80" height="80" as="geometry" />
        </mxCell>
        <mxCell id="sgSCA6xuzJVySZ0pajvX-13" value="&lt;font style=&quot;font-size: 36px;&quot;&gt;&lt;b style=&quot;&quot;&gt;...&lt;/b&gt;&lt;/font&gt;" style="text;html=1;align=center;verticalAlign=middle;resizable=0;points=[];autosize=1;strokeColor=none;fillColor=none;fontSize=16;" vertex="1" parent="1">
          <mxGeometry x="-163" y="-5" width="48" height="55" as="geometry" />
        </mxCell>
        <mxCell id="sgSCA6xuzJVySZ0pajvX-14" value="&lt;font style=&quot;font-size: 36px;&quot;&gt;&lt;b style=&quot;&quot;&gt;...&lt;/b&gt;&lt;/font&gt;" style="text;html=1;align=center;verticalAlign=middle;resizable=0;points=[];autosize=1;strokeColor=none;fillColor=none;fontSize=16;" vertex="1" parent="1">
          <mxGeometry x="7" y="-2" width="48" height="55" as="geometry" />
        </mxCell>
        <mxCell id="sgSCA6xuzJVySZ0pajvX-20" style="edgeStyle=none;curved=1;rounded=0;orthogonalLoop=1;jettySize=auto;html=1;exitX=0.5;exitY=0;exitDx=0;exitDy=0;entryX=0.5;entryY=1;entryDx=0;entryDy=0;fontSize=12;startSize=8;endSize=8;strokeWidth=3;" edge="1" parent="1" source="sgSCA6xuzJVySZ0pajvX-16" target="sgSCA6xuzJVySZ0pajvX-18">
          <mxGeometry relative="1" as="geometry" />
        </mxCell>
        <mxCell id="sgSCA6xuzJVySZ0pajvX-16" value="&lt;span style=&quot;font-size: 43px;&quot;&gt;&lt;b&gt;T&lt;sub&gt;Sk&lt;/sub&gt;&lt;/b&gt;&lt;/span&gt;" style="whiteSpace=wrap;html=1;aspect=fixed;fillColor=none;strokeColor=#000000;strokeWidth=4;" vertex="1" parent="1">
          <mxGeometry x="-97" y="-5" width="80" height="80" as="geometry" />
        </mxCell>
        <mxCell id="sgSCA6xuzJVySZ0pajvX-21" style="edgeStyle=none;curved=1;rounded=0;orthogonalLoop=1;jettySize=auto;html=1;exitX=0.5;exitY=0;exitDx=0;exitDy=0;entryX=0.5;entryY=1;entryDx=0;entryDy=0;fontSize=12;startSize=8;endSize=8;strokeWidth=3;" edge="1" parent="1" source="sgSCA6xuzJVySZ0pajvX-17" target="sgSCA6xuzJVySZ0pajvX-18">
          <mxGeometry relative="1" as="geometry" />
        </mxCell>
        <mxCell id="sgSCA6xuzJVySZ0pajvX-17" value="&lt;span style=&quot;font-size: 43px;&quot;&gt;&lt;b&gt;T&lt;sub&gt;Sd&lt;/sub&gt;&lt;/b&gt;&lt;/span&gt;" style="whiteSpace=wrap;html=1;aspect=fixed;fillColor=none;strokeColor=#000000;strokeWidth=4;" vertex="1" parent="1">
          <mxGeometry x="66" y="-5" width="80" height="80" as="geometry" />
        </mxCell>
        <mxCell id="sgSCA6xuzJVySZ0pajvX-22" style="edgeStyle=none;curved=1;rounded=0;orthogonalLoop=1;jettySize=auto;html=1;exitX=0.5;exitY=0;exitDx=0;exitDy=0;fontSize=12;startSize=8;endSize=8;strokeWidth=3;" edge="1" parent="1" source="sgSCA6xuzJVySZ0pajvX-18">
          <mxGeometry relative="1" as="geometry">
            <mxPoint x="-57.41176470588243" y="-208.66898301068477" as="targetPoint" />
          </mxGeometry>
        </mxCell>
        <mxCell id="sgSCA6xuzJVySZ0pajvX-18" value="" style="shape=orEllipse;perimeter=ellipsePerimeter;whiteSpace=wrap;html=1;backgroundOutline=1;strokeWidth=3;" vertex="1" parent="1">
          <mxGeometry x="-75" y="-132" width="36" height="36" as="geometry" />
        </mxCell>
        <mxCell id="sgSCA6xuzJVySZ0pajvX-23" value="" style="whiteSpace=wrap;html=1;aspect=fixed;fillColor=#A9C4EB;strokeColor=#000000;strokeWidth=4;" vertex="1" parent="1">
          <mxGeometry x="314" y="-272" width="80" height="80" as="geometry" />
        </mxCell>
        <mxCell id="sgSCA6xuzJVySZ0pajvX-24" value="" style="whiteSpace=wrap;html=1;aspect=fixed;fillColor=#A9C4EB;strokeColor=#000000;strokeWidth=4;" vertex="1" parent="1">
          <mxGeometry x="487" y="-272" width="80" height="80" as="geometry" />
        </mxCell>
        <mxCell id="sgSCA6xuzJVySZ0pajvX-25" value="" style="whiteSpace=wrap;html=1;aspect=fixed;fillColor=#A9C4EB;strokeColor=#000000;strokeWidth=4;" vertex="1" parent="1">
          <mxGeometry x="649" y="-275" width="80" height="80" as="geometry" />
        </mxCell>
        <mxCell id="sgSCA6xuzJVySZ0pajvX-26" value="&lt;font style=&quot;font-size: 36px;&quot;&gt;&lt;b style=&quot;&quot;&gt;...&lt;/b&gt;&lt;/font&gt;" style="text;html=1;align=center;verticalAlign=middle;resizable=0;points=[];autosize=1;strokeColor=none;fillColor=none;fontSize=16;" vertex="1" parent="1">
          <mxGeometry x="414" y="-268" width="48" height="55" as="geometry" />
        </mxCell>
        <mxCell id="sgSCA6xuzJVySZ0pajvX-27" value="&lt;font style=&quot;font-size: 36px;&quot;&gt;&lt;b style=&quot;&quot;&gt;...&lt;/b&gt;&lt;/font&gt;" style="text;html=1;align=center;verticalAlign=middle;resizable=0;points=[];autosize=1;strokeColor=none;fillColor=none;fontSize=16;" vertex="1" parent="1">
          <mxGeometry x="584" y="-265" width="48" height="55" as="geometry" />
        </mxCell>
        <mxCell id="sgSCA6xuzJVySZ0pajvX-28" value="" style="whiteSpace=wrap;html=1;aspect=fixed;fillColor=#E6E6E6;strokeColor=#000000;strokeWidth=4;" vertex="1" parent="1">
          <mxGeometry x="311" y="-99" width="80" height="80" as="geometry" />
        </mxCell>
        <mxCell id="sgSCA6xuzJVySZ0pajvX-29" value="" style="whiteSpace=wrap;html=1;aspect=fixed;fillColor=#E6E6E6;strokeColor=#000000;strokeWidth=4;" vertex="1" parent="1">
          <mxGeometry x="484" y="-99" width="80" height="80" as="geometry" />
        </mxCell>
        <mxCell id="sgSCA6xuzJVySZ0pajvX-30" value="" style="whiteSpace=wrap;html=1;aspect=fixed;fillColor=#E6E6E6;strokeColor=#000000;strokeWidth=4;" vertex="1" parent="1">
          <mxGeometry x="646" y="-102" width="80" height="80" as="geometry" />
        </mxCell>
        <mxCell id="sgSCA6xuzJVySZ0pajvX-31" value="&lt;font style=&quot;font-size: 36px;&quot;&gt;&lt;b style=&quot;&quot;&gt;...&lt;/b&gt;&lt;/font&gt;" style="text;html=1;align=center;verticalAlign=middle;resizable=0;points=[];autosize=1;strokeColor=none;fillColor=none;fontSize=16;" vertex="1" parent="1">
          <mxGeometry x="411" y="-95" width="48" height="55" as="geometry" />
        </mxCell>
        <mxCell id="sgSCA6xuzJVySZ0pajvX-32" value="&lt;font style=&quot;font-size: 36px;&quot;&gt;&lt;b style=&quot;&quot;&gt;...&lt;/b&gt;&lt;/font&gt;" style="text;html=1;align=center;verticalAlign=middle;resizable=0;points=[];autosize=1;strokeColor=none;fillColor=none;fontSize=16;" vertex="1" parent="1">
          <mxGeometry x="581" y="-92" width="48" height="55" as="geometry" />
        </mxCell>
        <mxCell id="sgSCA6xuzJVySZ0pajvX-33" style="edgeStyle=none;curved=1;rounded=0;orthogonalLoop=1;jettySize=auto;html=1;exitX=0.5;exitY=0;exitDx=0;exitDy=0;entryX=0.5;entryY=1;entryDx=0;entryDy=0;fontSize=12;startSize=8;endSize=8;strokeWidth=3;" edge="1" parent="1" source="sgSCA6xuzJVySZ0pajvX-34" target="sgSCA6xuzJVySZ0pajvX-42">
          <mxGeometry relative="1" as="geometry" />
        </mxCell>
        <mxCell id="sgSCA6xuzJVySZ0pajvX-34" value="" style="whiteSpace=wrap;html=1;aspect=fixed;fillColor=none;strokeColor=#000000;strokeWidth=4;" vertex="1" parent="1">
          <mxGeometry x="-13" y="393" width="80" height="80" as="geometry" />
        </mxCell>
        <mxCell id="sgSCA6xuzJVySZ0pajvX-35" value="&lt;font style=&quot;font-size: 36px;&quot;&gt;&lt;b style=&quot;&quot;&gt;...&lt;/b&gt;&lt;/font&gt;" style="text;html=1;align=center;verticalAlign=middle;resizable=0;points=[];autosize=1;strokeColor=none;fillColor=none;fontSize=16;" vertex="1" parent="1">
          <mxGeometry x="87" y="397" width="48" height="55" as="geometry" />
        </mxCell>
        <mxCell id="sgSCA6xuzJVySZ0pajvX-36" value="&lt;font style=&quot;font-size: 36px;&quot;&gt;&lt;b style=&quot;&quot;&gt;...&lt;/b&gt;&lt;/font&gt;" style="text;html=1;align=center;verticalAlign=middle;resizable=0;points=[];autosize=1;strokeColor=none;fillColor=none;fontSize=16;" vertex="1" parent="1">
          <mxGeometry x="257" y="400" width="48" height="55" as="geometry" />
        </mxCell>
        <mxCell id="sgSCA6xuzJVySZ0pajvX-37" style="edgeStyle=none;curved=1;rounded=0;orthogonalLoop=1;jettySize=auto;html=1;exitX=0.5;exitY=0;exitDx=0;exitDy=0;entryX=0.5;entryY=1;entryDx=0;entryDy=0;fontSize=12;startSize=8;endSize=8;strokeWidth=3;" edge="1" parent="1" source="sgSCA6xuzJVySZ0pajvX-38" target="sgSCA6xuzJVySZ0pajvX-42">
          <mxGeometry relative="1" as="geometry" />
        </mxCell>
        <mxCell id="sgSCA6xuzJVySZ0pajvX-38" value="" style="whiteSpace=wrap;html=1;aspect=fixed;fillColor=none;strokeColor=#000000;strokeWidth=4;" vertex="1" parent="1">
          <mxGeometry x="153" y="397" width="80" height="80" as="geometry" />
        </mxCell>
        <mxCell id="sgSCA6xuzJVySZ0pajvX-39" style="edgeStyle=none;curved=1;rounded=0;orthogonalLoop=1;jettySize=auto;html=1;exitX=0.5;exitY=0;exitDx=0;exitDy=0;entryX=0.5;entryY=1;entryDx=0;entryDy=0;fontSize=12;startSize=8;endSize=8;strokeWidth=3;" edge="1" parent="1" source="sgSCA6xuzJVySZ0pajvX-40" target="sgSCA6xuzJVySZ0pajvX-42">
          <mxGeometry relative="1" as="geometry" />
        </mxCell>
        <mxCell id="sgSCA6xuzJVySZ0pajvX-40" value="" style="whiteSpace=wrap;html=1;aspect=fixed;fillColor=none;strokeColor=#000000;strokeWidth=4;" vertex="1" parent="1">
          <mxGeometry x="316" y="397" width="80" height="80" as="geometry" />
        </mxCell>
        <mxCell id="sgSCA6xuzJVySZ0pajvX-41" style="edgeStyle=none;curved=1;rounded=0;orthogonalLoop=1;jettySize=auto;html=1;exitX=0.5;exitY=0;exitDx=0;exitDy=0;fontSize=12;startSize=8;endSize=8;strokeWidth=3;" edge="1" parent="1" source="sgSCA6xuzJVySZ0pajvX-42">
          <mxGeometry relative="1" as="geometry">
            <mxPoint x="192.58823529411757" y="193.33101698931523" as="targetPoint" />
          </mxGeometry>
        </mxCell>
        <mxCell id="sgSCA6xuzJVySZ0pajvX-42" value="" style="shape=orEllipse;perimeter=ellipsePerimeter;whiteSpace=wrap;html=1;backgroundOutline=1;strokeWidth=3;" vertex="1" parent="1">
          <mxGeometry x="175" y="270" width="36" height="36" as="geometry" />
        </mxCell>
        <mxCell id="sgSCA6xuzJVySZ0pajvX-45" style="edgeStyle=none;curved=1;rounded=0;orthogonalLoop=1;jettySize=auto;html=1;entryX=0;entryY=0.5;entryDx=0;entryDy=0;fontSize=12;startSize=8;endSize=8;strokeWidth=3;" edge="1" parent="1" source="sgSCA6xuzJVySZ0pajvX-44" target="sgSCA6xuzJVySZ0pajvX-18">
          <mxGeometry relative="1" as="geometry" />
        </mxCell>
        <mxCell id="sgSCA6xuzJVySZ0pajvX-44" value="&lt;b&gt;&lt;font style=&quot;font-size: 32px;&quot;&gt;RoPE&lt;/font&gt;&lt;/b&gt;" style="rounded=1;whiteSpace=wrap;html=1;fillColor=#CCFFE6;fontColor=#333333;strokeColor=#666666;" vertex="1" parent="1">
          <mxGeometry x="-250" y="-144" width="108" height="60" as="geometry" />
        </mxCell>
        <mxCell id="sgSCA6xuzJVySZ0pajvX-47" style="edgeStyle=none;curved=1;rounded=0;orthogonalLoop=1;jettySize=auto;html=1;entryX=0;entryY=0.5;entryDx=0;entryDy=0;fontSize=12;startSize=8;endSize=8;strokeWidth=3;" edge="1" parent="1" source="sgSCA6xuzJVySZ0pajvX-46" target="sgSCA6xuzJVySZ0pajvX-42">
          <mxGeometry relative="1" as="geometry" />
        </mxCell>
        <mxCell id="sgSCA6xuzJVySZ0pajvX-46" value="&lt;b&gt;&lt;font style=&quot;font-size: 32px;&quot;&gt;RoPE&lt;/font&gt;&lt;/b&gt;" style="rounded=1;whiteSpace=wrap;html=1;fillColor=#CCFFE6;fontColor=#333333;strokeColor=#666666;" vertex="1" parent="1">
          <mxGeometry x="-17" y="258" width="108" height="60" as="geometry" />
        </mxCell>
        <mxCell id="sgSCA6xuzJVySZ0pajvX-50" style="edgeStyle=none;curved=1;rounded=0;orthogonalLoop=1;jettySize=auto;html=1;exitX=0.5;exitY=1;exitDx=0;exitDy=0;entryX=0.5;entryY=0;entryDx=0;entryDy=0;fontSize=12;startSize=8;endSize=8;" edge="1" parent="1" source="sgSCA6xuzJVySZ0pajvX-48" target="sgSCA6xuzJVySZ0pajvX-49">
          <mxGeometry relative="1" as="geometry" />
        </mxCell>
        <mxCell id="sgSCA6xuzJVySZ0pajvX-48" value="&lt;font style=&quot;font-size: 22px;&quot;&gt;&lt;b&gt;2DR&amp;nbsp; Transformer Block_1&lt;/b&gt;&lt;/font&gt;" style="rounded=1;whiteSpace=wrap;html=1;fillColor=#f5f5f5;fontColor=#333333;strokeColor=#666666;" vertex="1" parent="1">
          <mxGeometry x="-464" y="911" width="328" height="60" as="geometry" />
        </mxCell>
        <mxCell id="sgSCA6xuzJVySZ0pajvX-60" style="edgeStyle=none;curved=1;rounded=0;orthogonalLoop=1;jettySize=auto;html=1;exitX=0.5;exitY=1;exitDx=0;exitDy=0;fontSize=12;startSize=8;endSize=8;entryX=0.5;entryY=0;entryDx=0;entryDy=0;" edge="1" parent="1" source="sgSCA6xuzJVySZ0pajvX-49" target="sgSCA6xuzJVySZ0pajvX-59">
          <mxGeometry relative="1" as="geometry">
            <mxPoint x="-299.7647058823527" y="1136.429032269646" as="targetPoint" />
          </mxGeometry>
        </mxCell>
        <mxCell id="sgSCA6xuzJVySZ0pajvX-49" value="&lt;font style=&quot;font-size: 22px;&quot;&gt;&lt;b&gt;2DR&amp;nbsp; Transformer Block_2&lt;/b&gt;&lt;/font&gt;" style="rounded=1;whiteSpace=wrap;html=1;fillColor=#f5f5f5;fontColor=#333333;strokeColor=#666666;" vertex="1" parent="1">
          <mxGeometry x="-464" y="1010" width="328" height="60" as="geometry" />
        </mxCell>
        <mxCell id="sgSCA6xuzJVySZ0pajvX-58" style="edgeStyle=none;curved=1;rounded=0;orthogonalLoop=1;jettySize=auto;html=1;exitX=0.5;exitY=1;exitDx=0;exitDy=0;entryX=0.5;entryY=0;entryDx=0;entryDy=0;fontSize=12;startSize=8;endSize=8;" edge="1" parent="1" source="sgSCA6xuzJVySZ0pajvX-57" target="sgSCA6xuzJVySZ0pajvX-48">
          <mxGeometry relative="1" as="geometry" />
        </mxCell>
        <mxCell id="sgSCA6xuzJVySZ0pajvX-123" style="edgeStyle=none;curved=0;rounded=1;orthogonalLoop=1;jettySize=auto;html=1;exitX=0;exitY=0.5;exitDx=0;exitDy=0;entryX=0;entryY=0.5;entryDx=0;entryDy=0;fontSize=12;startSize=8;endSize=8;" edge="1" parent="1" source="sgSCA6xuzJVySZ0pajvX-57" target="sgSCA6xuzJVySZ0pajvX-80">
          <mxGeometry relative="1" as="geometry">
            <Array as="points">
              <mxPoint x="-509" y="842" />
              <mxPoint x="-509" y="1258" />
            </Array>
          </mxGeometry>
        </mxCell>
        <mxCell id="sgSCA6xuzJVySZ0pajvX-57" value="&lt;b&gt;&lt;font style=&quot;font-size: 20px;&quot;&gt;Tokens&lt;/font&gt;&lt;/b&gt;" style="rounded=1;whiteSpace=wrap;html=1;fillColor=#dae8fc;strokeColor=#6c8ebf;" vertex="1" parent="1">
          <mxGeometry x="-360" y="812" width="120" height="60" as="geometry" />
        </mxCell>
        <mxCell id="sgSCA6xuzJVySZ0pajvX-63" style="edgeStyle=none;curved=1;rounded=0;orthogonalLoop=1;jettySize=auto;html=1;exitX=0.5;exitY=1;exitDx=0;exitDy=0;fontSize=12;startSize=8;endSize=8;entryX=0.5;entryY=0;entryDx=0;entryDy=0;" edge="1" parent="1" source="sgSCA6xuzJVySZ0pajvX-59" target="sgSCA6xuzJVySZ0pajvX-68">
          <mxGeometry relative="1" as="geometry">
            <mxPoint x="-300" y="1259" as="targetPoint" />
          </mxGeometry>
        </mxCell>
        <mxCell id="sgSCA6xuzJVySZ0pajvX-59" value="&lt;font style=&quot;font-size: 22px;&quot;&gt;&lt;b&gt;2DR&amp;nbsp; Transformer Block_23&lt;/b&gt;&lt;/font&gt;" style="rounded=1;whiteSpace=wrap;html=1;fillColor=#f5f5f5;fontColor=#333333;strokeColor=#666666;" vertex="1" parent="1">
          <mxGeometry x="-464" y="1108" width="328" height="60" as="geometry" />
        </mxCell>
        <mxCell id="sgSCA6xuzJVySZ0pajvX-61" value="&lt;font style=&quot;font-size: 36px;&quot;&gt;&lt;b style=&quot;&quot;&gt;...&lt;/b&gt;&lt;/font&gt;" style="text;html=1;align=center;verticalAlign=middle;resizable=0;points=[];autosize=1;strokeColor=none;fillColor=none;fontSize=16;" vertex="1" parent="1">
          <mxGeometry x="-381" y="1053" width="48" height="55" as="geometry" />
        </mxCell>
        <mxCell id="sgSCA6xuzJVySZ0pajvX-62" value="&lt;font style=&quot;font-size: 36px;&quot;&gt;&lt;b style=&quot;&quot;&gt;...&lt;/b&gt;&lt;/font&gt;" style="text;html=1;align=center;verticalAlign=middle;resizable=0;points=[];autosize=1;strokeColor=none;fillColor=none;fontSize=16;" vertex="1" parent="1">
          <mxGeometry x="-282" y="1053" width="48" height="55" as="geometry" />
        </mxCell>
        <mxCell id="sgSCA6xuzJVySZ0pajvX-69" style="edgeStyle=none;curved=1;rounded=0;orthogonalLoop=1;jettySize=auto;html=1;exitX=1;exitY=0.5;exitDx=0;exitDy=0;fontSize=12;startSize=8;endSize=8;" edge="1" parent="1" source="sgSCA6xuzJVySZ0pajvX-64">
          <mxGeometry relative="1" as="geometry">
            <mxPoint x="48.344047995174606" y="1203.3529411764707" as="targetPoint" />
          </mxGeometry>
        </mxCell>
        <mxCell id="sgSCA6xuzJVySZ0pajvX-70" style="edgeStyle=none;curved=0;rounded=1;orthogonalLoop=1;jettySize=auto;html=1;exitX=0.5;exitY=1;exitDx=0;exitDy=0;entryX=1;entryY=0.5;entryDx=0;entryDy=0;fontSize=12;startSize=8;endSize=8;dashed=1;" edge="1" parent="1" source="sgSCA6xuzJVySZ0pajvX-64" target="sgSCA6xuzJVySZ0pajvX-68">
          <mxGeometry relative="1" as="geometry">
            <Array as="points">
              <mxPoint x="-55" y="1257" />
            </Array>
          </mxGeometry>
        </mxCell>
        <mxCell id="sgSCA6xuzJVySZ0pajvX-64" value="&lt;b&gt;&lt;font style=&quot;font-size: 18px;&quot;&gt;Predict-Net&lt;/font&gt;&lt;/b&gt;" style="rounded=1;whiteSpace=wrap;html=1;fillColor=#f0a30a;fontColor=#000000;strokeColor=#BD7000;" vertex="1" parent="1">
          <mxGeometry x="-115" y="1173" width="120" height="60" as="geometry" />
        </mxCell>
        <mxCell id="sgSCA6xuzJVySZ0pajvX-67" value="" style="endArrow=classic;html=1;rounded=0;fontSize=12;startSize=8;endSize=8;curved=1;" edge="1" parent="1">
          <mxGeometry width="50" height="50" relative="1" as="geometry">
            <mxPoint x="-300" y="1202.41" as="sourcePoint" />
            <mxPoint x="-114" y="1202" as="targetPoint" />
          </mxGeometry>
        </mxCell>
        <mxCell id="sgSCA6xuzJVySZ0pajvX-73" style="edgeStyle=none;curved=1;rounded=0;orthogonalLoop=1;jettySize=auto;html=1;exitX=0.5;exitY=1;exitDx=0;exitDy=0;entryX=0.5;entryY=0;entryDx=0;entryDy=0;fontSize=12;startSize=8;endSize=8;" edge="1" parent="1" source="sgSCA6xuzJVySZ0pajvX-68" target="sgSCA6xuzJVySZ0pajvX-72">
          <mxGeometry relative="1" as="geometry" />
        </mxCell>
        <mxCell id="sgSCA6xuzJVySZ0pajvX-68" value="" style="shape=orEllipse;perimeter=ellipsePerimeter;whiteSpace=wrap;html=1;backgroundOutline=1;" vertex="1" parent="1">
          <mxGeometry x="-314" y="1243" width="28" height="29" as="geometry" />
        </mxCell>
        <mxCell id="sgSCA6xuzJVySZ0pajvX-71" value="&lt;b&gt;&lt;font style=&quot;font-size: 18px;&quot;&gt;Logit_1&lt;/font&gt;&lt;/b&gt;" style="text;html=1;align=center;verticalAlign=middle;resizable=0;points=[];autosize=1;strokeColor=none;fillColor=none;fontSize=16;" vertex="1" parent="1">
          <mxGeometry x="53" y="1186" width="82" height="34" as="geometry" />
        </mxCell>
        <mxCell id="sgSCA6xuzJVySZ0pajvX-75" style="edgeStyle=none;curved=1;rounded=0;orthogonalLoop=1;jettySize=auto;html=1;exitX=0.5;exitY=1;exitDx=0;exitDy=0;entryX=0.5;entryY=0;entryDx=0;entryDy=0;fontSize=12;startSize=8;endSize=8;" edge="1" parent="1" source="sgSCA6xuzJVySZ0pajvX-72" target="sgSCA6xuzJVySZ0pajvX-74">
          <mxGeometry relative="1" as="geometry" />
        </mxCell>
        <mxCell id="sgSCA6xuzJVySZ0pajvX-72" value="&lt;font style=&quot;font-size: 22px;&quot;&gt;&lt;b&gt;2DR&amp;nbsp; Transformer Block_24&lt;/b&gt;&lt;/font&gt;" style="rounded=1;whiteSpace=wrap;html=1;fillColor=#f5f5f5;fontColor=#333333;strokeColor=#666666;" vertex="1" parent="1">
          <mxGeometry x="-464" y="1303" width="328" height="60" as="geometry" />
        </mxCell>
        <mxCell id="sgSCA6xuzJVySZ0pajvX-83" style="edgeStyle=none;curved=0;rounded=1;orthogonalLoop=1;jettySize=auto;html=1;exitX=0.5;exitY=1;exitDx=0;exitDy=0;entryX=0;entryY=0.5;entryDx=0;entryDy=0;fontSize=12;startSize=8;endSize=8;" edge="1" parent="1" source="sgSCA6xuzJVySZ0pajvX-74" target="sgSCA6xuzJVySZ0pajvX-82">
          <mxGeometry relative="1" as="geometry">
            <Array as="points">
              <mxPoint x="-300" y="1535" />
            </Array>
          </mxGeometry>
        </mxCell>
        <mxCell id="sgSCA6xuzJVySZ0pajvX-74" value="&lt;font style=&quot;font-size: 22px;&quot;&gt;&lt;b&gt;2DR&amp;nbsp; Transformer Block_32&lt;/b&gt;&lt;/font&gt;" style="rounded=1;whiteSpace=wrap;html=1;fillColor=#f5f5f5;fontColor=#333333;strokeColor=#666666;" vertex="1" parent="1">
          <mxGeometry x="-464" y="1405" width="328" height="60" as="geometry" />
        </mxCell>
        <mxCell id="sgSCA6xuzJVySZ0pajvX-76" value="&lt;font style=&quot;font-size: 36px;&quot;&gt;&lt;b style=&quot;&quot;&gt;...&lt;/b&gt;&lt;/font&gt;" style="text;html=1;align=center;verticalAlign=middle;resizable=0;points=[];autosize=1;strokeColor=none;fillColor=none;fontSize=16;" vertex="1" parent="1">
          <mxGeometry x="-378" y="1347" width="48" height="55" as="geometry" />
        </mxCell>
        <mxCell id="sgSCA6xuzJVySZ0pajvX-77" value="&lt;font style=&quot;font-size: 36px;&quot;&gt;&lt;b style=&quot;&quot;&gt;...&lt;/b&gt;&lt;/font&gt;" style="text;html=1;align=center;verticalAlign=middle;resizable=0;points=[];autosize=1;strokeColor=none;fillColor=none;fontSize=16;" vertex="1" parent="1">
          <mxGeometry x="-282" y="1347" width="48" height="55" as="geometry" />
        </mxCell>
        <mxCell id="sgSCA6xuzJVySZ0pajvX-78" value="&lt;b&gt;&lt;font style=&quot;font-size: 19px;&quot;&gt;Inference&lt;/font&gt;&lt;/b&gt;" style="text;html=1;align=center;verticalAlign=middle;resizable=0;points=[];autosize=1;strokeColor=none;fillColor=none;fontSize=16;" vertex="1" parent="1">
          <mxGeometry x="-211" y="1260" width="102" height="35" as="geometry" />
        </mxCell>
        <mxCell id="sgSCA6xuzJVySZ0pajvX-81" style="edgeStyle=none;curved=1;rounded=0;orthogonalLoop=1;jettySize=auto;html=1;exitX=1;exitY=0.5;exitDx=0;exitDy=0;entryX=0;entryY=0.5;entryDx=0;entryDy=0;fontSize=12;startSize=8;endSize=8;" edge="1" parent="1" source="sgSCA6xuzJVySZ0pajvX-80" target="sgSCA6xuzJVySZ0pajvX-68">
          <mxGeometry relative="1" as="geometry" />
        </mxCell>
        <mxCell id="sgSCA6xuzJVySZ0pajvX-80" value="&lt;span style=&quot;font-size: 18px;&quot;&gt;&lt;b&gt;Targets&lt;/b&gt;&lt;/span&gt;" style="rounded=1;whiteSpace=wrap;html=1;fillColor=#f0a30a;fontColor=#000000;strokeColor=#BD7000;" vertex="1" parent="1">
          <mxGeometry x="-468" y="1232" width="108" height="51" as="geometry" />
        </mxCell>
        <mxCell id="sgSCA6xuzJVySZ0pajvX-85" style="edgeStyle=none;curved=1;rounded=0;orthogonalLoop=1;jettySize=auto;html=1;exitX=1;exitY=0.5;exitDx=0;exitDy=0;fontSize=12;startSize=8;endSize=8;" edge="1" parent="1" source="sgSCA6xuzJVySZ0pajvX-82" target="sgSCA6xuzJVySZ0pajvX-84">
          <mxGeometry relative="1" as="geometry" />
        </mxCell>
        <mxCell id="sgSCA6xuzJVySZ0pajvX-82" value="&lt;b&gt;&lt;font style=&quot;font-size: 18px;&quot;&gt;Predict-Net&lt;/font&gt;&lt;/b&gt;" style="rounded=1;whiteSpace=wrap;html=1;fillColor=#f0a30a;fontColor=#000000;strokeColor=#BD7000;" vertex="1" parent="1">
          <mxGeometry x="-115" y="1505" width="120" height="60" as="geometry" />
        </mxCell>
        <mxCell id="sgSCA6xuzJVySZ0pajvX-84" value="&lt;b&gt;&lt;font style=&quot;font-size: 18px;&quot;&gt;Logit_2&lt;/font&gt;&lt;/b&gt;" style="text;html=1;align=center;verticalAlign=middle;resizable=0;points=[];autosize=1;strokeColor=none;fillColor=none;fontSize=16;" vertex="1" parent="1">
          <mxGeometry x="53" y="1518" width="82" height="34" as="geometry" />
        </mxCell>
        <mxCell id="sgSCA6xuzJVySZ0pajvX-86" value="" style="rounded=1;whiteSpace=wrap;html=1;fillColor=#d5e8d4;strokeColor=#82b366;" vertex="1" parent="1">
          <mxGeometry x="-351" y="1894" width="263" height="426" as="geometry" />
        </mxCell>
        <mxCell id="sgSCA6xuzJVySZ0pajvX-87" style="edgeStyle=none;curved=1;rounded=0;orthogonalLoop=1;jettySize=auto;html=1;exitX=0.5;exitY=1;exitDx=0;exitDy=0;fontSize=12;startSize=8;endSize=8;entryX=0.5;entryY=0;entryDx=0;entryDy=0;" edge="1" parent="1" target="sgSCA6xuzJVySZ0pajvX-90">
          <mxGeometry relative="1" as="geometry">
            <mxPoint x="-224.36263157894723" y="1894.9744856984998" as="targetPoint" />
            <mxPoint x="-224.30000000000018" y="1836.000000000001" as="sourcePoint" />
          </mxGeometry>
        </mxCell>
        <mxCell id="sgSCA6xuzJVySZ0pajvX-89" style="edgeStyle=none;curved=1;rounded=0;orthogonalLoop=1;jettySize=auto;html=1;exitX=0.5;exitY=1;exitDx=0;exitDy=0;entryX=0.5;entryY=0;entryDx=0;entryDy=0;fontSize=12;startSize=8;endSize=8;" edge="1" parent="1" source="sgSCA6xuzJVySZ0pajvX-90" target="sgSCA6xuzJVySZ0pajvX-92">
          <mxGeometry relative="1" as="geometry" />
        </mxCell>
        <mxCell id="sgSCA6xuzJVySZ0pajvX-90" value="&lt;span style=&quot;font-size: 18px;&quot;&gt;&lt;b&gt;RMSNorm&lt;/b&gt;&lt;/span&gt;" style="rounded=1;whiteSpace=wrap;html=1;fillColor=#f8cecc;strokeColor=#b85450;" vertex="1" parent="1">
          <mxGeometry x="-282.80999999999995" y="1941" width="117" height="35" as="geometry" />
        </mxCell>
        <mxCell id="sgSCA6xuzJVySZ0pajvX-91" style="edgeStyle=none;curved=1;rounded=0;orthogonalLoop=1;jettySize=auto;html=1;exitX=0.5;exitY=1;exitDx=0;exitDy=0;entryX=0.5;entryY=0;entryDx=0;entryDy=0;fontSize=12;startSize=8;endSize=8;" edge="1" parent="1" source="sgSCA6xuzJVySZ0pajvX-92" target="sgSCA6xuzJVySZ0pajvX-96">
          <mxGeometry relative="1" as="geometry" />
        </mxCell>
        <mxCell id="sgSCA6xuzJVySZ0pajvX-92" value="&lt;b style=&quot;font-size: 18px;&quot;&gt;CausalSelf-Attention（&lt;/b&gt;&lt;span style=&quot;font-size: 18px;&quot;&gt;&lt;b&gt;camera&lt;/b&gt;&lt;/span&gt;&lt;b style=&quot;font-size: 18px;&quot;&gt;）&lt;/b&gt;" style="rounded=1;whiteSpace=wrap;html=1;fillColor=#cce5ff;strokeColor=#36393d;" vertex="1" parent="1">
          <mxGeometry x="-319.55999999999995" y="2000" width="190.5" height="53" as="geometry" />
        </mxCell>
        <mxCell id="sgSCA6xuzJVySZ0pajvX-93" style="edgeStyle=none;curved=1;rounded=0;orthogonalLoop=1;jettySize=auto;html=1;exitX=0.5;exitY=1;exitDx=0;exitDy=0;entryX=0.5;entryY=0;entryDx=0;entryDy=0;fontSize=12;startSize=8;endSize=8;" edge="1" parent="1" source="sgSCA6xuzJVySZ0pajvX-94" target="sgSCA6xuzJVySZ0pajvX-98">
          <mxGeometry relative="1" as="geometry" />
        </mxCell>
        <mxCell id="sgSCA6xuzJVySZ0pajvX-94" value="&lt;b style=&quot;font-size: 18px;&quot;&gt;RMSNorm&lt;/b&gt;" style="rounded=1;whiteSpace=wrap;html=1;fillColor=#f8cecc;strokeColor=#b85450;" vertex="1" parent="1">
          <mxGeometry x="-282.79999999999995" y="2144" width="117" height="35" as="geometry" />
        </mxCell>
        <mxCell id="sgSCA6xuzJVySZ0pajvX-95" style="edgeStyle=none;curved=1;rounded=0;orthogonalLoop=1;jettySize=auto;html=1;exitX=0.5;exitY=1;exitDx=0;exitDy=0;entryX=0.5;entryY=0;entryDx=0;entryDy=0;fontSize=12;startSize=8;endSize=8;" edge="1" parent="1" source="sgSCA6xuzJVySZ0pajvX-96" target="sgSCA6xuzJVySZ0pajvX-94">
          <mxGeometry relative="1" as="geometry" />
        </mxCell>
        <mxCell id="sgSCA6xuzJVySZ0pajvX-96" value="" style="shape=orEllipse;perimeter=ellipsePerimeter;whiteSpace=wrap;html=1;backgroundOutline=1;rounded=0;" vertex="1" parent="1">
          <mxGeometry x="-232.80999999999995" y="2080" width="17" height="16" as="geometry" />
        </mxCell>
        <mxCell id="sgSCA6xuzJVySZ0pajvX-97" style="edgeStyle=none;curved=1;rounded=0;orthogonalLoop=1;jettySize=auto;html=1;exitX=0.5;exitY=1;exitDx=0;exitDy=0;entryX=0.5;entryY=0;entryDx=0;entryDy=0;fontSize=12;startSize=8;endSize=8;" edge="1" parent="1" source="sgSCA6xuzJVySZ0pajvX-98" target="sgSCA6xuzJVySZ0pajvX-102">
          <mxGeometry relative="1" as="geometry" />
        </mxCell>
        <mxCell id="sgSCA6xuzJVySZ0pajvX-98" value="&lt;font style=&quot;font-size: 20px;&quot;&gt;SiGLU&lt;/font&gt;" style="rounded=1;whiteSpace=wrap;html=1;fillColor=#1ba1e2;fontColor=#ffffff;strokeColor=#006EAF;" vertex="1" parent="1">
          <mxGeometry x="-292.67999999999984" y="2206" width="136.75" height="53" as="geometry" />
        </mxCell>
        <mxCell id="sgSCA6xuzJVySZ0pajvX-99" value="" style="endArrow=classic;html=1;rounded=1;fontSize=12;startSize=8;endSize=8;curved=0;entryX=1;entryY=0.5;entryDx=0;entryDy=0;" edge="1" parent="1" target="sgSCA6xuzJVySZ0pajvX-96">
          <mxGeometry width="50" height="50" relative="1" as="geometry">
            <mxPoint x="-224.05999999999995" y="1913" as="sourcePoint" />
            <mxPoint x="-129.05999999999995" y="1995" as="targetPoint" />
            <Array as="points">
              <mxPoint x="-122.30999999999995" y="1913" />
              <mxPoint x="-122.30999999999995" y="2088" />
            </Array>
          </mxGeometry>
        </mxCell>
        <mxCell id="sgSCA6xuzJVySZ0pajvX-100" value="" style="endArrow=classic;html=1;rounded=1;fontSize=12;startSize=8;endSize=8;curved=0;entryX=1;entryY=0.5;entryDx=0;entryDy=0;" edge="1" parent="1" target="sgSCA6xuzJVySZ0pajvX-102">
          <mxGeometry width="50" height="50" relative="1" as="geometry">
            <mxPoint x="-223.67999999999984" y="2119" as="sourcePoint" />
            <mxPoint x="-107.30999999999995" y="2370" as="targetPoint" />
            <Array as="points">
              <mxPoint x="-121.92999999999984" y="2119" />
              <mxPoint x="-124.30999999999995" y="2287" />
            </Array>
          </mxGeometry>
        </mxCell>
        <mxCell id="sgSCA6xuzJVySZ0pajvX-101" style="edgeStyle=none;curved=1;rounded=0;orthogonalLoop=1;jettySize=auto;html=1;exitX=0.5;exitY=1;exitDx=0;exitDy=0;fontSize=12;startSize=8;endSize=8;entryX=0.5;entryY=0;entryDx=0;entryDy=0;" edge="1" parent="1" source="sgSCA6xuzJVySZ0pajvX-102">
          <mxGeometry relative="1" as="geometry">
            <mxPoint x="-223.30999999999995" y="2386" as="targetPoint" />
          </mxGeometry>
        </mxCell>
        <mxCell id="sgSCA6xuzJVySZ0pajvX-102" value="" style="shape=orEllipse;perimeter=ellipsePerimeter;whiteSpace=wrap;html=1;backgroundOutline=1;rounded=0;" vertex="1" parent="1">
          <mxGeometry x="-232.79999999999995" y="2279" width="17" height="16" as="geometry" />
        </mxCell>
        <mxCell id="sgSCA6xuzJVySZ0pajvX-104" value="&lt;b&gt;&lt;font style=&quot;font-size: 18px;&quot;&gt;Input&lt;/font&gt;&lt;/b&gt;" style="text;html=1;align=center;verticalAlign=middle;resizable=0;points=[];autosize=1;strokeColor=none;fillColor=none;fontSize=16;" vertex="1" parent="1">
          <mxGeometry x="-255.31" y="1801" width="62" height="34" as="geometry" />
        </mxCell>
        <mxCell id="sgSCA6xuzJVySZ0pajvX-105" value="" style="rounded=1;whiteSpace=wrap;html=1;fillColor=#d5e8d4;strokeColor=#82b366;" vertex="1" parent="1">
          <mxGeometry x="180" y="1888.5" width="263" height="426" as="geometry" />
        </mxCell>
        <mxCell id="sgSCA6xuzJVySZ0pajvX-106" style="edgeStyle=none;curved=1;rounded=0;orthogonalLoop=1;jettySize=auto;html=1;exitX=0.5;exitY=1;exitDx=0;exitDy=0;fontSize=12;startSize=8;endSize=8;entryX=0.5;entryY=0;entryDx=0;entryDy=0;" edge="1" parent="1" target="sgSCA6xuzJVySZ0pajvX-108">
          <mxGeometry relative="1" as="geometry">
            <mxPoint x="306.63736842105277" y="1889.4744856984998" as="targetPoint" />
            <mxPoint x="306.6999999999998" y="1830.500000000001" as="sourcePoint" />
          </mxGeometry>
        </mxCell>
        <mxCell id="sgSCA6xuzJVySZ0pajvX-107" style="edgeStyle=none;curved=1;rounded=0;orthogonalLoop=1;jettySize=auto;html=1;exitX=0.5;exitY=1;exitDx=0;exitDy=0;entryX=0.5;entryY=0;entryDx=0;entryDy=0;fontSize=12;startSize=8;endSize=8;" edge="1" parent="1" source="sgSCA6xuzJVySZ0pajvX-108" target="sgSCA6xuzJVySZ0pajvX-110">
          <mxGeometry relative="1" as="geometry" />
        </mxCell>
        <mxCell id="sgSCA6xuzJVySZ0pajvX-108" value="&lt;span style=&quot;font-size: 18px;&quot;&gt;LayNorm&lt;/span&gt;" style="rounded=1;whiteSpace=wrap;html=1;fillColor=#f8cecc;strokeColor=#b85450;" vertex="1" parent="1">
          <mxGeometry x="248.19000000000005" y="1935.5" width="117" height="35" as="geometry" />
        </mxCell>
        <mxCell id="sgSCA6xuzJVySZ0pajvX-109" style="edgeStyle=none;curved=1;rounded=0;orthogonalLoop=1;jettySize=auto;html=1;exitX=0.5;exitY=1;exitDx=0;exitDy=0;entryX=0.5;entryY=0;entryDx=0;entryDy=0;fontSize=12;startSize=8;endSize=8;" edge="1" parent="1" source="sgSCA6xuzJVySZ0pajvX-110" target="sgSCA6xuzJVySZ0pajvX-114">
          <mxGeometry relative="1" as="geometry" />
        </mxCell>
        <mxCell id="sgSCA6xuzJVySZ0pajvX-110" value="&lt;span style=&quot;font-size: 18px;&quot;&gt;Self-Attention&lt;/span&gt;" style="rounded=1;whiteSpace=wrap;html=1;fillColor=#cce5ff;strokeColor=#36393d;" vertex="1" parent="1">
          <mxGeometry x="211.44000000000005" y="1994.5" width="190.5" height="53" as="geometry" />
        </mxCell>
        <mxCell id="sgSCA6xuzJVySZ0pajvX-111" style="edgeStyle=none;curved=1;rounded=0;orthogonalLoop=1;jettySize=auto;html=1;exitX=0.5;exitY=1;exitDx=0;exitDy=0;entryX=0.5;entryY=0;entryDx=0;entryDy=0;fontSize=12;startSize=8;endSize=8;" edge="1" parent="1" source="sgSCA6xuzJVySZ0pajvX-112" target="sgSCA6xuzJVySZ0pajvX-116">
          <mxGeometry relative="1" as="geometry" />
        </mxCell>
        <mxCell id="sgSCA6xuzJVySZ0pajvX-112" value="&lt;span style=&quot;font-size: 18px;&quot;&gt;Laynorm&lt;/span&gt;" style="rounded=1;whiteSpace=wrap;html=1;fillColor=#f8cecc;strokeColor=#b85450;" vertex="1" parent="1">
          <mxGeometry x="248.20000000000005" y="2138.5" width="117" height="35" as="geometry" />
        </mxCell>
        <mxCell id="sgSCA6xuzJVySZ0pajvX-113" style="edgeStyle=none;curved=1;rounded=0;orthogonalLoop=1;jettySize=auto;html=1;exitX=0.5;exitY=1;exitDx=0;exitDy=0;entryX=0.5;entryY=0;entryDx=0;entryDy=0;fontSize=12;startSize=8;endSize=8;" edge="1" parent="1" source="sgSCA6xuzJVySZ0pajvX-114" target="sgSCA6xuzJVySZ0pajvX-112">
          <mxGeometry relative="1" as="geometry" />
        </mxCell>
        <mxCell id="sgSCA6xuzJVySZ0pajvX-114" value="" style="shape=orEllipse;perimeter=ellipsePerimeter;whiteSpace=wrap;html=1;backgroundOutline=1;rounded=0;" vertex="1" parent="1">
          <mxGeometry x="298.19000000000005" y="2074.5" width="17" height="16" as="geometry" />
        </mxCell>
        <mxCell id="sgSCA6xuzJVySZ0pajvX-115" style="edgeStyle=none;curved=1;rounded=0;orthogonalLoop=1;jettySize=auto;html=1;exitX=0.5;exitY=1;exitDx=0;exitDy=0;entryX=0.5;entryY=0;entryDx=0;entryDy=0;fontSize=12;startSize=8;endSize=8;" edge="1" parent="1" source="sgSCA6xuzJVySZ0pajvX-116" target="sgSCA6xuzJVySZ0pajvX-120">
          <mxGeometry relative="1" as="geometry" />
        </mxCell>
        <mxCell id="sgSCA6xuzJVySZ0pajvX-116" value="&lt;span style=&quot;font-size: 20px;&quot;&gt;MLP&lt;/span&gt;" style="rounded=1;whiteSpace=wrap;html=1;fillColor=#1ba1e2;fontColor=#ffffff;strokeColor=#006EAF;" vertex="1" parent="1">
          <mxGeometry x="238.32000000000016" y="2200.5" width="136.75" height="53" as="geometry" />
        </mxCell>
        <mxCell id="sgSCA6xuzJVySZ0pajvX-117" value="" style="endArrow=classic;html=1;rounded=1;fontSize=12;startSize=8;endSize=8;curved=0;entryX=1;entryY=0.5;entryDx=0;entryDy=0;" edge="1" parent="1" target="sgSCA6xuzJVySZ0pajvX-114">
          <mxGeometry width="50" height="50" relative="1" as="geometry">
            <mxPoint x="306.94000000000005" y="1907.5" as="sourcePoint" />
            <mxPoint x="401.94000000000005" y="1989.5" as="targetPoint" />
            <Array as="points">
              <mxPoint x="408.69000000000005" y="1907.5" />
              <mxPoint x="408.69000000000005" y="2082.5" />
            </Array>
          </mxGeometry>
        </mxCell>
        <mxCell id="sgSCA6xuzJVySZ0pajvX-118" value="" style="endArrow=classic;html=1;rounded=1;fontSize=12;startSize=8;endSize=8;curved=0;entryX=1;entryY=0.5;entryDx=0;entryDy=0;" edge="1" parent="1" target="sgSCA6xuzJVySZ0pajvX-120">
          <mxGeometry width="50" height="50" relative="1" as="geometry">
            <mxPoint x="307.32000000000016" y="2113.5" as="sourcePoint" />
            <mxPoint x="423.69000000000005" y="2364.5" as="targetPoint" />
            <Array as="points">
              <mxPoint x="409.07000000000016" y="2113.5" />
              <mxPoint x="406.69000000000005" y="2281.5" />
            </Array>
          </mxGeometry>
        </mxCell>
        <mxCell id="sgSCA6xuzJVySZ0pajvX-119" style="edgeStyle=none;curved=1;rounded=0;orthogonalLoop=1;jettySize=auto;html=1;exitX=0.5;exitY=1;exitDx=0;exitDy=0;fontSize=12;startSize=8;endSize=8;entryX=0.5;entryY=0;entryDx=0;entryDy=0;" edge="1" parent="1" source="sgSCA6xuzJVySZ0pajvX-120">
          <mxGeometry relative="1" as="geometry">
            <mxPoint x="307.69000000000005" y="2380.5" as="targetPoint" />
          </mxGeometry>
        </mxCell>
        <mxCell id="sgSCA6xuzJVySZ0pajvX-120" value="" style="shape=orEllipse;perimeter=ellipsePerimeter;whiteSpace=wrap;html=1;backgroundOutline=1;rounded=0;" vertex="1" parent="1">
          <mxGeometry x="298.20000000000005" y="2273.5" width="17" height="16" as="geometry" />
        </mxCell>
        <mxCell id="sgSCA6xuzJVySZ0pajvX-121" value="&lt;b&gt;&lt;font style=&quot;font-size: 18px;&quot;&gt;Input&lt;/font&gt;&lt;/b&gt;" style="text;html=1;align=center;verticalAlign=middle;resizable=0;points=[];autosize=1;strokeColor=none;fillColor=none;fontSize=16;" vertex="1" parent="1">
          <mxGeometry x="275.69" y="1795.5" width="62" height="34" as="geometry" />
        </mxCell>
        <mxCell id="sgSCA6xuzJVySZ0pajvX-135" value="" style="rounded=1;whiteSpace=wrap;html=1;fillColor=#fad7ac;strokeColor=#b46504;" vertex="1" parent="1">
          <mxGeometry x="-749" y="3056" width="122" height="110" as="geometry" />
        </mxCell>
        <mxCell id="sgSCA6xuzJVySZ0pajvX-136" value="" style="rounded=1;whiteSpace=wrap;html=1;fillColor=#b0e3e6;strokeColor=#0e8088;" vertex="1" parent="1">
          <mxGeometry x="-627" y="3058.5" width="36" height="105" as="geometry" />
        </mxCell>
        <mxCell id="sgSCA6xuzJVySZ0pajvX-137" value="" style="rounded=1;whiteSpace=wrap;html=1;fillColor=#fad7ac;strokeColor=#b46504;" vertex="1" parent="1">
          <mxGeometry x="-591" y="3056" width="122" height="110" as="geometry" />
        </mxCell>
        <mxCell id="sgSCA6xuzJVySZ0pajvX-138" value="" style="rounded=1;whiteSpace=wrap;html=1;fillColor=#b0e3e6;strokeColor=#0e8088;" vertex="1" parent="1">
          <mxGeometry x="-469" y="3058.5" width="36" height="105" as="geometry" />
        </mxCell>
        <mxCell id="sgSCA6xuzJVySZ0pajvX-139" value="" style="rounded=1;whiteSpace=wrap;html=1;fillColor=#fad7ac;strokeColor=#b46504;" vertex="1" parent="1">
          <mxGeometry x="-433" y="3056" width="122" height="110" as="geometry" />
        </mxCell>
        <mxCell id="sgSCA6xuzJVySZ0pajvX-140" value="" style="shape=curlyBracket;whiteSpace=wrap;html=1;rounded=1;labelPosition=left;verticalLabelPosition=middle;align=right;verticalAlign=middle;rotation=-90;" vertex="1" parent="1">
          <mxGeometry x="-679.5" y="3104.5" width="20" height="157" as="geometry" />
        </mxCell>
        <mxCell id="sgSCA6xuzJVySZ0pajvX-141" value="" style="shape=curlyBracket;whiteSpace=wrap;html=1;rounded=1;labelPosition=left;verticalLabelPosition=middle;align=right;verticalAlign=middle;rotation=-90;" vertex="1" parent="1">
          <mxGeometry x="-461" y="3166" width="20" height="37" as="geometry" />
        </mxCell>
        <mxCell id="sgSCA6xuzJVySZ0pajvX-142" value="&lt;b&gt;pos&lt;/b&gt;" style="text;html=1;align=center;verticalAlign=middle;resizable=0;points=[];autosize=1;strokeColor=none;fillColor=none;fontSize=16;" vertex="1" parent="1">
          <mxGeometry x="-692.5" y="3191" width="46" height="31" as="geometry" />
        </mxCell>
        <mxCell id="sgSCA6xuzJVySZ0pajvX-144" value="&lt;b&gt;pos&lt;/b&gt;" style="text;html=1;align=center;verticalAlign=middle;resizable=0;points=[];autosize=1;strokeColor=none;fillColor=none;fontSize=16;" vertex="1" parent="1">
          <mxGeometry x="-473" y="3191" width="46" height="31" as="geometry" />
        </mxCell>
        <mxCell id="sgSCA6xuzJVySZ0pajvX-146" value="" style="shape=curlyBracket;whiteSpace=wrap;html=1;rounded=1;labelPosition=left;verticalLabelPosition=middle;align=right;verticalAlign=middle;rotation=-90;" vertex="1" parent="1">
          <mxGeometry x="-540" y="3124.5" width="20" height="120" as="geometry" />
        </mxCell>
        <mxCell id="sgSCA6xuzJVySZ0pajvX-147" value="&lt;b&gt;&lt;font color=&quot;#ff0000&quot;&gt;Shuffle&lt;/font&gt; pos&lt;/b&gt;" style="text;html=1;align=center;verticalAlign=middle;resizable=0;points=[];autosize=1;strokeColor=none;fillColor=none;fontSize=16;" vertex="1" parent="1">
          <mxGeometry x="-582" y="3191" width="105" height="31" as="geometry" />
        </mxCell>
        <mxCell id="sgSCA6xuzJVySZ0pajvX-148" value="&lt;b&gt;&lt;font color=&quot;#ff0000&quot;&gt;Shuffle&lt;/font&gt; pos&lt;/b&gt;" style="text;html=1;align=center;verticalAlign=middle;resizable=0;points=[];autosize=1;strokeColor=none;fillColor=none;fontSize=16;" vertex="1" parent="1">
          <mxGeometry x="-416" y="3193" width="105" height="31" as="geometry" />
        </mxCell>
        <mxCell id="sgSCA6xuzJVySZ0pajvX-149" value="" style="shape=curlyBracket;whiteSpace=wrap;html=1;rounded=1;labelPosition=left;verticalLabelPosition=middle;align=right;verticalAlign=middle;rotation=-90;" vertex="1" parent="1">
          <mxGeometry x="-382" y="3124.5" width="20" height="120" as="geometry" />
        </mxCell>
        <mxCell id="sgSCA6xuzJVySZ0pajvX-150" value="" style="shape=curlyBracket;whiteSpace=wrap;html=1;rounded=1;labelPosition=left;verticalLabelPosition=middle;align=right;verticalAlign=middle;direction=south;" vertex="1" parent="1">
          <mxGeometry x="-603" y="3034" width="120" height="20" as="geometry" />
        </mxCell>
        <mxCell id="sgSCA6xuzJVySZ0pajvX-151" value="&lt;b&gt;&lt;font color=&quot;#ff0000&quot;&gt;Shuffle&lt;/font&gt;&amp;nbsp;Target&lt;/b&gt;" style="text;html=1;align=center;verticalAlign=middle;resizable=0;points=[];autosize=1;strokeColor=none;fillColor=none;fontSize=16;" vertex="1" parent="1">
          <mxGeometry x="-604.5" y="2996" width="124" height="31" as="geometry" />
        </mxCell>
        <mxCell id="sgSCA6xuzJVySZ0pajvX-152" value="" style="shape=curlyBracket;whiteSpace=wrap;html=1;rounded=1;labelPosition=left;verticalLabelPosition=middle;align=right;verticalAlign=middle;direction=south;" vertex="1" parent="1">
          <mxGeometry x="-441.56" y="3034" width="120" height="20" as="geometry" />
        </mxCell>
        <mxCell id="sgSCA6xuzJVySZ0pajvX-153" value="&lt;b&gt;&lt;font color=&quot;#ff0000&quot;&gt;Shuffle&lt;/font&gt;&amp;nbsp;Target&lt;/b&gt;" style="text;html=1;align=center;verticalAlign=middle;resizable=0;points=[];autosize=1;strokeColor=none;fillColor=none;fontSize=16;" vertex="1" parent="1">
          <mxGeometry x="-443" y="2996" width="124" height="31" as="geometry" />
        </mxCell>
        <mxCell id="sgSCA6xuzJVySZ0pajvX-171" value="" style="rounded=1;whiteSpace=wrap;html=1;fillColor=#fad7ac;strokeColor=#b46504;" vertex="1" parent="1">
          <mxGeometry x="-749" y="2675" width="122" height="110" as="geometry" />
        </mxCell>
        <mxCell id="sgSCA6xuzJVySZ0pajvX-172" value="" style="rounded=1;whiteSpace=wrap;html=1;fillColor=#b0e3e6;strokeColor=#0e8088;" vertex="1" parent="1">
          <mxGeometry x="-627" y="2677.5" width="36" height="105" as="geometry" />
        </mxCell>
        <mxCell id="sgSCA6xuzJVySZ0pajvX-173" value="" style="rounded=1;whiteSpace=wrap;html=1;fillColor=#fad7ac;strokeColor=#b46504;" vertex="1" parent="1">
          <mxGeometry x="-591" y="2675" width="122" height="110" as="geometry" />
        </mxCell>
        <mxCell id="sgSCA6xuzJVySZ0pajvX-174" value="" style="rounded=1;whiteSpace=wrap;html=1;fillColor=#b0e3e6;strokeColor=#0e8088;" vertex="1" parent="1">
          <mxGeometry x="-469" y="2677.5" width="36" height="105" as="geometry" />
        </mxCell>
        <mxCell id="sgSCA6xuzJVySZ0pajvX-175" value="" style="rounded=1;whiteSpace=wrap;html=1;fillColor=#fad7ac;strokeColor=#b46504;" vertex="1" parent="1">
          <mxGeometry x="-433" y="2675" width="122" height="110" as="geometry" />
        </mxCell>
        <mxCell id="sgSCA6xuzJVySZ0pajvX-176" value="" style="shape=curlyBracket;whiteSpace=wrap;html=1;rounded=1;labelPosition=left;verticalLabelPosition=middle;align=right;verticalAlign=middle;rotation=-90;" vertex="1" parent="1">
          <mxGeometry x="-679.5" y="2723.5" width="20" height="157" as="geometry" />
        </mxCell>
        <mxCell id="sgSCA6xuzJVySZ0pajvX-177" value="" style="shape=curlyBracket;whiteSpace=wrap;html=1;rounded=1;labelPosition=left;verticalLabelPosition=middle;align=right;verticalAlign=middle;rotation=-90;" vertex="1" parent="1">
          <mxGeometry x="-461" y="2785" width="20" height="37" as="geometry" />
        </mxCell>
        <mxCell id="sgSCA6xuzJVySZ0pajvX-178" value="&lt;b&gt;pos&lt;/b&gt;" style="text;html=1;align=center;verticalAlign=middle;resizable=0;points=[];autosize=1;strokeColor=none;fillColor=none;fontSize=16;" vertex="1" parent="1">
          <mxGeometry x="-692.5" y="2810" width="46" height="31" as="geometry" />
        </mxCell>
        <mxCell id="sgSCA6xuzJVySZ0pajvX-179" value="&lt;b&gt;pos&lt;/b&gt;" style="text;html=1;align=center;verticalAlign=middle;resizable=0;points=[];autosize=1;strokeColor=none;fillColor=none;fontSize=16;" vertex="1" parent="1">
          <mxGeometry x="-473" y="2810" width="46" height="31" as="geometry" />
        </mxCell>
        <mxCell id="sgSCA6xuzJVySZ0pajvX-180" value="" style="shape=curlyBracket;whiteSpace=wrap;html=1;rounded=1;labelPosition=left;verticalLabelPosition=middle;align=right;verticalAlign=middle;rotation=-90;" vertex="1" parent="1">
          <mxGeometry x="-540" y="2743.5" width="20" height="120" as="geometry" />
        </mxCell>
        <mxCell id="sgSCA6xuzJVySZ0pajvX-181" value="&lt;b&gt;pos&lt;/b&gt;" style="text;html=1;align=center;verticalAlign=middle;resizable=0;points=[];autosize=1;strokeColor=none;fillColor=none;fontSize=16;" vertex="1" parent="1">
          <mxGeometry x="-552" y="2810" width="46" height="31" as="geometry" />
        </mxCell>
        <mxCell id="sgSCA6xuzJVySZ0pajvX-182" value="&lt;b&gt;pos&lt;/b&gt;" style="text;html=1;align=center;verticalAlign=middle;resizable=0;points=[];autosize=1;strokeColor=none;fillColor=none;fontSize=16;" vertex="1" parent="1">
          <mxGeometry x="-386" y="2812" width="46" height="31" as="geometry" />
        </mxCell>
        <mxCell id="sgSCA6xuzJVySZ0pajvX-183" value="" style="shape=curlyBracket;whiteSpace=wrap;html=1;rounded=1;labelPosition=left;verticalLabelPosition=middle;align=right;verticalAlign=middle;rotation=-90;" vertex="1" parent="1">
          <mxGeometry x="-382" y="2743.5" width="20" height="120" as="geometry" />
        </mxCell>
        <mxCell id="sgSCA6xuzJVySZ0pajvX-184" value="" style="shape=curlyBracket;whiteSpace=wrap;html=1;rounded=1;labelPosition=left;verticalLabelPosition=middle;align=right;verticalAlign=middle;direction=south;" vertex="1" parent="1">
          <mxGeometry x="-603" y="2653" width="120" height="20" as="geometry" />
        </mxCell>
        <mxCell id="sgSCA6xuzJVySZ0pajvX-185" value="&lt;b&gt;Target&lt;/b&gt;" style="text;html=1;align=center;verticalAlign=middle;resizable=0;points=[];autosize=1;strokeColor=none;fillColor=none;fontSize=16;" vertex="1" parent="1">
          <mxGeometry x="-575.5" y="2615" width="66" height="31" as="geometry" />
        </mxCell>
        <mxCell id="sgSCA6xuzJVySZ0pajvX-186" value="" style="shape=curlyBracket;whiteSpace=wrap;html=1;rounded=1;labelPosition=left;verticalLabelPosition=middle;align=right;verticalAlign=middle;direction=south;" vertex="1" parent="1">
          <mxGeometry x="-441.56" y="2653" width="120" height="20" as="geometry" />
        </mxCell>
        <mxCell id="sgSCA6xuzJVySZ0pajvX-187" value="&lt;b&gt;Target&lt;/b&gt;" style="text;html=1;align=center;verticalAlign=middle;resizable=0;points=[];autosize=1;strokeColor=none;fillColor=none;fontSize=16;" vertex="1" parent="1">
          <mxGeometry x="-414" y="2615" width="66" height="31" as="geometry" />
        </mxCell>
        <mxCell id="sgSCA6xuzJVySZ0pajvX-188" value="&lt;b&gt;First and Last Stage&lt;/b&gt;" style="text;html=1;align=center;verticalAlign=middle;resizable=0;points=[];autosize=1;strokeColor=none;fillColor=none;fontSize=16;" vertex="1" parent="1">
          <mxGeometry x="-611.5" y="2556" width="171" height="31" as="geometry" />
        </mxCell>
        <mxCell id="sgSCA6xuzJVySZ0pajvX-189" value="&lt;b&gt;Second Stage&lt;/b&gt;" style="text;html=1;align=center;verticalAlign=middle;resizable=0;points=[];autosize=1;strokeColor=none;fillColor=none;fontSize=16;" vertex="1" parent="1">
          <mxGeometry x="-588" y="2928" width="124" height="31" as="geometry" />
        </mxCell>
        <mxCell id="sgSCA6xuzJVySZ0pajvX-210" style="edgeStyle=none;curved=1;rounded=0;orthogonalLoop=1;jettySize=auto;html=1;exitX=0.5;exitY=1;exitDx=0;exitDy=0;entryX=0.5;entryY=0;entryDx=0;entryDy=0;fontSize=12;startSize=8;endSize=8;" edge="1" parent="1" source="sgSCA6xuzJVySZ0pajvX-191" target="sgSCA6xuzJVySZ0pajvX-209">
          <mxGeometry relative="1" as="geometry" />
        </mxCell>
        <mxCell id="sgSCA6xuzJVySZ0pajvX-191" value="Encoder" style="rounded=1;whiteSpace=wrap;html=1;fillColor=#fad7ac;strokeColor=#b46504;" vertex="1" parent="1">
          <mxGeometry x="-504" y="3473" width="88" height="30" as="geometry" />
        </mxCell>
        <mxCell id="sgSCA6xuzJVySZ0pajvX-208" style="edgeStyle=none;curved=1;rounded=0;orthogonalLoop=1;jettySize=auto;html=1;entryX=0.5;entryY=0;entryDx=0;entryDy=0;fontSize=12;startSize=8;endSize=8;" edge="1" parent="1" source="sgSCA6xuzJVySZ0pajvX-207" target="sgSCA6xuzJVySZ0pajvX-191">
          <mxGeometry relative="1" as="geometry" />
        </mxCell>
        <mxCell id="sgSCA6xuzJVySZ0pajvX-207" value="Image" style="text;html=1;align=center;verticalAlign=middle;resizable=0;points=[];autosize=1;strokeColor=none;fillColor=none;fontSize=16;" vertex="1" parent="1">
          <mxGeometry x="-491" y="3411" width="62" height="31" as="geometry" />
        </mxCell>
        <mxCell id="sgSCA6xuzJVySZ0pajvX-223" style="edgeStyle=none;curved=1;rounded=0;orthogonalLoop=1;jettySize=auto;html=1;exitX=0.5;exitY=1;exitDx=0;exitDy=0;entryX=0.5;entryY=0;entryDx=0;entryDy=0;fontSize=12;startSize=8;endSize=8;" edge="1" parent="1" source="sgSCA6xuzJVySZ0pajvX-209" target="sgSCA6xuzJVySZ0pajvX-222">
          <mxGeometry relative="1" as="geometry" />
        </mxCell>
        <mxCell id="sgSCA6xuzJVySZ0pajvX-209" value="quant_conv" style="rounded=1;whiteSpace=wrap;html=1;fillColor=#b1ddf0;strokeColor=#10739e;" vertex="1" parent="1">
          <mxGeometry x="-495" y="3527" width="70" height="24" as="geometry" />
        </mxCell>
        <mxCell id="sgSCA6xuzJVySZ0pajvX-218" style="edgeStyle=none;curved=1;rounded=0;orthogonalLoop=1;jettySize=auto;html=1;exitX=0.5;exitY=1;exitDx=0;exitDy=0;entryX=0.5;entryY=0;entryDx=0;entryDy=0;fontSize=12;startSize=8;endSize=8;" edge="1" parent="1" source="sgSCA6xuzJVySZ0pajvX-213" target="sgSCA6xuzJVySZ0pajvX-215">
          <mxGeometry relative="1" as="geometry" />
        </mxCell>
        <mxCell id="sgSCA6xuzJVySZ0pajvX-213" value="Downsample" style="rounded=1;whiteSpace=wrap;html=1;fillColor=#fad9d5;strokeColor=#ae4132;" vertex="1" parent="1">
          <mxGeometry x="-507.5" y="3656" width="95" height="24" as="geometry" />
        </mxCell>
        <mxCell id="sgSCA6xuzJVySZ0pajvX-229" style="edgeStyle=none;curved=1;rounded=0;orthogonalLoop=1;jettySize=auto;html=1;exitX=0.5;exitY=1;exitDx=0;exitDy=0;entryX=0.5;entryY=0;entryDx=0;entryDy=0;fontSize=12;startSize=8;endSize=8;" edge="1" parent="1" source="sgSCA6xuzJVySZ0pajvX-215" target="sgSCA6xuzJVySZ0pajvX-228">
          <mxGeometry relative="1" as="geometry" />
        </mxCell>
        <mxCell id="sgSCA6xuzJVySZ0pajvX-215" value="Scale &lt;b&gt;1&lt;/b&gt;" style="rounded=1;whiteSpace=wrap;html=1;" vertex="1" parent="1">
          <mxGeometry x="-490" y="3703" width="60" height="29" as="geometry" />
        </mxCell>
        <mxCell id="sgSCA6xuzJVySZ0pajvX-226" style="edgeStyle=none;curved=1;rounded=0;orthogonalLoop=1;jettySize=auto;html=1;exitX=0.5;exitY=1;exitDx=0;exitDy=0;entryX=0.5;entryY=0;entryDx=0;entryDy=0;fontSize=12;startSize=8;endSize=8;" edge="1" parent="1" source="sgSCA6xuzJVySZ0pajvX-222" target="sgSCA6xuzJVySZ0pajvX-225">
          <mxGeometry relative="1" as="geometry" />
        </mxCell>
        <mxCell id="sgSCA6xuzJVySZ0pajvX-222" value="Latent-feature" style="rounded=1;whiteSpace=wrap;html=1;fillColor=#d0cee2;strokeColor=#56517e;" vertex="1" parent="1">
          <mxGeometry x="-502" y="3570" width="84" height="24" as="geometry" />
        </mxCell>
        <mxCell id="sgSCA6xuzJVySZ0pajvX-227" style="edgeStyle=none;curved=1;rounded=0;orthogonalLoop=1;jettySize=auto;html=1;exitX=0.5;exitY=1;exitDx=0;exitDy=0;entryX=0.5;entryY=0;entryDx=0;entryDy=0;fontSize=12;startSize=8;endSize=8;" edge="1" parent="1" source="sgSCA6xuzJVySZ0pajvX-225" target="sgSCA6xuzJVySZ0pajvX-213">
          <mxGeometry relative="1" as="geometry" />
        </mxCell>
        <mxCell id="sgSCA6xuzJVySZ0pajvX-225" value="" style="shape=lineEllipse;perimeter=ellipsePerimeter;whiteSpace=wrap;html=1;backgroundOutline=1;" vertex="1" parent="1">
          <mxGeometry x="-469" y="3613" width="17.31" height="18" as="geometry" />
        </mxCell>
        <mxCell id="sgSCA6xuzJVySZ0pajvX-231" style="edgeStyle=none;curved=1;rounded=0;orthogonalLoop=1;jettySize=auto;html=1;exitX=0.5;exitY=1;exitDx=0;exitDy=0;entryX=0.5;entryY=0;entryDx=0;entryDy=0;fontSize=12;startSize=8;endSize=8;" edge="1" parent="1" source="sgSCA6xuzJVySZ0pajvX-228" target="sgSCA6xuzJVySZ0pajvX-230">
          <mxGeometry relative="1" as="geometry" />
        </mxCell>
        <mxCell id="sgSCA6xuzJVySZ0pajvX-232" style="edgeStyle=none;curved=1;rounded=0;orthogonalLoop=1;jettySize=auto;html=1;exitX=0;exitY=0.5;exitDx=0;exitDy=0;fontSize=12;startSize=8;endSize=8;" edge="1" parent="1" source="sgSCA6xuzJVySZ0pajvX-228">
          <mxGeometry relative="1" as="geometry">
            <mxPoint x="-573.4331547663762" y="3769.8461538461534" as="targetPoint" />
          </mxGeometry>
        </mxCell>
        <mxCell id="sgSCA6xuzJVySZ0pajvX-228" value="&lt;b&gt;Get_indices&lt;/b&gt;" style="rounded=1;whiteSpace=wrap;html=1;" vertex="1" parent="1">
          <mxGeometry x="-496.17" y="3755" width="72.34" height="29" as="geometry" />
        </mxCell>
        <mxCell id="sgSCA6xuzJVySZ0pajvX-238" style="edgeStyle=none;curved=1;rounded=0;orthogonalLoop=1;jettySize=auto;html=1;exitX=0.5;exitY=1;exitDx=0;exitDy=0;entryX=0.5;entryY=0;entryDx=0;entryDy=0;fontSize=12;startSize=8;endSize=8;" edge="1" parent="1" source="sgSCA6xuzJVySZ0pajvX-230" target="sgSCA6xuzJVySZ0pajvX-237">
          <mxGeometry relative="1" as="geometry" />
        </mxCell>
        <mxCell id="sgSCA6xuzJVySZ0pajvX-230" value="&lt;b&gt;Embedding&lt;/b&gt;" style="rounded=1;whiteSpace=wrap;html=1;" vertex="1" parent="1">
          <mxGeometry x="-496.17" y="3805" width="72.34" height="29" as="geometry" />
        </mxCell>
        <mxCell id="sgSCA6xuzJVySZ0pajvX-233" value="[... ]" style="text;html=1;align=center;verticalAlign=middle;resizable=0;points=[];autosize=1;strokeColor=none;fillColor=none;fontSize=16;" vertex="1" parent="1">
          <mxGeometry x="-627" y="3753" width="45" height="31" as="geometry" />
        </mxCell>
        <mxCell id="sgSCA6xuzJVySZ0pajvX-241" style="edgeStyle=none;curved=1;rounded=0;orthogonalLoop=1;jettySize=auto;html=1;exitX=0.5;exitY=1;exitDx=0;exitDy=0;entryX=0.5;entryY=0;entryDx=0;entryDy=0;fontSize=12;startSize=8;endSize=8;" edge="1" parent="1" source="sgSCA6xuzJVySZ0pajvX-237" target="sgSCA6xuzJVySZ0pajvX-240">
          <mxGeometry relative="1" as="geometry" />
        </mxCell>
        <mxCell id="sgSCA6xuzJVySZ0pajvX-237" value="Interpolate_max" style="rounded=1;whiteSpace=wrap;html=1;fillColor=#b0e3e6;strokeColor=#0e8088;" vertex="1" parent="1">
          <mxGeometry x="-509" y="3855" width="98" height="29" as="geometry" />
        </mxCell>
        <mxCell id="sgSCA6xuzJVySZ0pajvX-242" style="edgeStyle=none;curved=1;rounded=0;orthogonalLoop=1;jettySize=auto;html=1;exitX=0.5;exitY=1;exitDx=0;exitDy=0;fontSize=12;startSize=8;endSize=8;entryX=0.5;entryY=0;entryDx=0;entryDy=0;" edge="1" parent="1" source="sgSCA6xuzJVySZ0pajvX-240" target="sgSCA6xuzJVySZ0pajvX-243">
          <mxGeometry relative="1" as="geometry">
            <mxPoint x="-459.8461538461538" y="3974.6353888878457" as="targetPoint" />
          </mxGeometry>
        </mxCell>
        <mxCell id="sgSCA6xuzJVySZ0pajvX-240" value="&lt;b&gt;Res_conv&lt;/b&gt;" style="rounded=1;whiteSpace=wrap;html=1;fillColor=#b0e3e6;strokeColor=#0e8088;" vertex="1" parent="1">
          <mxGeometry x="-497.25" y="3905" width="74.5" height="29" as="geometry" />
        </mxCell>
        <mxCell id="sgSCA6xuzJVySZ0pajvX-246" style="edgeStyle=none;curved=1;rounded=0;orthogonalLoop=1;jettySize=auto;html=1;exitX=0.5;exitY=1;exitDx=0;exitDy=0;fontSize=12;startSize=8;endSize=8;" edge="1" parent="1" source="sgSCA6xuzJVySZ0pajvX-243" target="sgSCA6xuzJVySZ0pajvX-245">
          <mxGeometry relative="1" as="geometry" />
        </mxCell>
        <mxCell id="sgSCA6xuzJVySZ0pajvX-243" value="" style="shape=orEllipse;perimeter=ellipsePerimeter;whiteSpace=wrap;html=1;backgroundOutline=1;" vertex="1" parent="1">
          <mxGeometry x="-468" y="3972" width="17" height="18" as="geometry" />
        </mxCell>
        <mxCell id="sgSCA6xuzJVySZ0pajvX-245" value="F_hat_k" style="text;html=1;align=center;verticalAlign=middle;resizable=0;points=[];autosize=1;strokeColor=none;fillColor=none;fontSize=16;" vertex="1" parent="1">
          <mxGeometry x="-496" y="4018" width="76" height="31" as="geometry" />
        </mxCell>
        <mxCell id="sgSCA6xuzJVySZ0pajvX-248" style="edgeStyle=none;curved=1;rounded=0;orthogonalLoop=1;jettySize=auto;html=1;entryX=1;entryY=0.5;entryDx=0;entryDy=0;fontSize=12;startSize=8;endSize=8;" edge="1" parent="1" source="sgSCA6xuzJVySZ0pajvX-247" target="sgSCA6xuzJVySZ0pajvX-243">
          <mxGeometry relative="1" as="geometry" />
        </mxCell>
        <mxCell id="sgSCA6xuzJVySZ0pajvX-247" value="F_hat_k-1" style="text;html=1;align=center;verticalAlign=middle;resizable=0;points=[];autosize=1;strokeColor=none;fillColor=none;fontSize=16;" vertex="1" parent="1">
          <mxGeometry x="-416" y="3965.5" width="90" height="31" as="geometry" />
        </mxCell>
        <mxCell id="sgSCA6xuzJVySZ0pajvX-249" value="" style="endArrow=classic;html=1;rounded=1;fontSize=12;startSize=8;endSize=8;curved=0;entryX=1;entryY=0.5;entryDx=0;entryDy=0;" edge="1" parent="1" target="sgSCA6xuzJVySZ0pajvX-225">
          <mxGeometry width="50" height="50" relative="1" as="geometry">
            <mxPoint x="-460" y="3952" as="sourcePoint" />
            <mxPoint x="-224" y="3721" as="targetPoint" />
            <Array as="points">
              <mxPoint x="-400" y="3952" />
              <mxPoint x="-400" y="3622" />
            </Array>
          </mxGeometry>
        </mxCell>
      </root>
    </mxGraphModel>
  </diagram>
</mxfile>
